<svg xmlns:xlink="http://www.w3.org/1999/xlink" xmlns="http://www.w3.org/2000/svg" id="Layer_1" data-name="Layer 1" viewBox="0 0 237.06 103.46" width="237.06"  height="103.46" ><defs><style>.cls-1{fill:#35589b;}.cls-2{fill:#f04c23;}.cls-3{fill:none;stroke:#f04c23;stroke-linecap:round;stroke-miterlimit:10;stroke-width:1.5px;}</style></defs><title>logo svg</title><path class="cls-1" d="M0,25.42V24.31c3.34.11,6,.17,8,.17H11.3c1.36-.06,2.27-.06,2.81-.06a7.89,7.89,0,0,1,5.55,1.73,6.24,6.24,0,0,1,1.85,4.74A6.89,6.89,0,0,1,18.25,37,11.85,11.85,0,0,1,15,38.34l6.26,8.22c.8,1,1.28,1.62,1.48,1.82a4.1,4.1,0,0,0,1.24.65,26.29,26.29,0,0,0,3.57,1v1.11c-2-.15-3.45-.2-4.36-.2a23,23,0,0,0-3.2.2c-.57-.94-1.34-2.13-2.32-3.58S16.07,45.3,15.86,45a5.37,5.37,0,0,1-.35-.45L11.3,38.82c-1.13,0-2.27-.11-3.4-.25l.15,9.55a1.24,1.24,0,0,0,.34.85,8.81,8.81,0,0,0,2.85.82,8.08,8.08,0,0,1,1,.23v1.11c-2.26-.12-4.28-.2-6-.2S2.3,51,0,51.13V50l.82-.17A9.55,9.55,0,0,0,3.86,49a1.87,1.87,0,0,0,.43-1.19c0-.37,0-3.6.08-9.69L4.3,29.2a15.35,15.35,0,0,0-.09-2.35.63.63,0,0,0-.36-.42A9,9,0,0,0,.92,25.6,9,9,0,0,1,0,25.41ZM8,37c1.29.14,2.32.23,3.06.23,2.29,0,4-.51,5.1-1.53a5.55,5.55,0,0,0,1.67-4.25,5,5,0,0,0-1.47-3.77A6,6,0,0,0,12,26.27c-.68,0-2,.08-4,.22ZM34,25.42V24.31c2.35.11,4.35.17,6.07.17s3.82-.06,6.12-.17v1.11c-.37.08-.68.17-.88.19a9.89,9.89,0,0,0-3,.71,1.79,1.79,0,0,0-.36,1.28c-.09,1.73-.12,4.93-.12,9.66A51.78,51.78,0,0,0,42,43.73a5.84,5.84,0,0,0,1.25,2.92A6.43,6.43,0,0,0,46,48.52a10.68,10.68,0,0,0,3.68.65,8.46,8.46,0,0,0,4.82-1.25A5.82,5.82,0,0,0,57,44.63a35.2,35.2,0,0,0,.59-8c0-5.27,0-8.36-.11-9.32a1.43,1.43,0,0,0-.37-.88,12.18,12.18,0,0,0-2.83-.8,5.88,5.88,0,0,1-.83-.19V24.33c2.47.11,4.34.17,5.62.17,1.44,0,3.09-.06,5-.17v1.11l-.8.22a9.55,9.55,0,0,0-2.83.8,1.23,1.23,0,0,0-.4,1q-.21,1.5-.25,8.82c0,3.77-.09,6.18-.2,7.2a10.6,10.6,0,0,1-.88,3.4,7.82,7.82,0,0,1-2,2.46,8.61,8.61,0,0,1-3,1.7,15.72,15.72,0,0,1-4.76.74A16.53,16.53,0,0,1,44,51.1a8.41,8.41,0,0,1-3.35-1.84,7.54,7.54,0,0,1-1.78-2.75,13.25,13.25,0,0,1-.6-4.59l.09-8.59V27.94a3.18,3.18,0,0,0-.29-1.25,1.06,1.06,0,0,0-.45-.39A20.14,20.14,0,0,0,35,25.7a9,9,0,0,1-.93-.22Zm40.1,0V24.31c1.62.11,3.68.17,6.24.17h7.45c2.75,0,4.79.6,6,1.76a6.28,6.28,0,0,1,1.93,4.82A7.84,7.84,0,0,1,93.09,37,9.92,9.92,0,0,1,86,39.39,21.64,21.64,0,0,1,82,38.91v4.2a44.75,44.75,0,0,0,.18,5.55.64.64,0,0,0,.36.48,13.14,13.14,0,0,0,3.55.74l.73.17v1.11c-2.38-.12-4.62-.2-6.69-.2s-4,.08-6,.2V50.05a6.33,6.33,0,0,1,1.11-.25,12.34,12.34,0,0,0,2.74-.74c.32-.28.49-1,.49-2.21l0-9.16V28.14a2.21,2.21,0,0,0-.36-1.56A10.17,10.17,0,0,0,75,25.67c-.19-.05-.51-.11-.93-.22ZM82,37.29a16.64,16.64,0,0,0,3.43.46,6.53,6.53,0,0,0,4.76-1.65,5.73,5.73,0,0,0,1.67-4.31,5.36,5.36,0,0,0-1.53-4.11,6.7,6.7,0,0,0-4.76-1.47,22.93,22.93,0,0,0-3.4.28C82,30.32,82,33.89,82,37.29Zm34.9-13.4h1.19q2.55,6.54,6.28,14.85l4.41,9.61a2.15,2.15,0,0,0,.68.76,22,22,0,0,0,2.78.91v1.11c-2.3-.12-4-.2-5.08-.2s-3,.08-5.67.2V50a11.44,11.44,0,0,0,2.67-.76.83.83,0,0,0,.37-.66,3.62,3.62,0,0,0-.41-1.33l-1.93-4.62h-11l-2,4.79a5.87,5.87,0,0,0-.51,1.42.45.45,0,0,0,.25.4,11.26,11.26,0,0,0,2.19.59,2.56,2.56,0,0,1,.6.17v1.11c-2.16-.12-3.66-.2-4.56-.2-1.11,0-2.55.08-4.31.2V50a6.75,6.75,0,0,0,2.46-.82,4.32,4.32,0,0,0,1-1.22c.74-1.25,2.56-5.24,5.5-12ZM112,40.75c1.72.06,3,.09,3.71.09l5.78-.09-4.76-11.28Zm30.09-15.33V24.31c3.35.11,6,.17,8,.17h3.27c1.34-.06,2.27-.06,2.78-.06a8,8,0,0,1,5.59,1.73,6.3,6.3,0,0,1,1.84,4.74A7,7,0,0,1,160.24,37,11.56,11.56,0,0,1,157,38.34l6.3,8.22a19.5,19.5,0,0,0,1.47,1.82,3.68,3.68,0,0,0,1.22.65,25.91,25.91,0,0,0,3.6,1v1.11c-2-.15-3.46-.2-4.37-.2a22.82,22.82,0,0,0-3.2.2c-.6-.94-1.36-2.13-2.32-3.58s-1.56-2.26-1.79-2.55l-.34-.45-4.17-5.73c-1.14,0-2.28-.11-3.4-.25l.14,9.55a1.24,1.24,0,0,0,.34.85,8.92,8.92,0,0,0,2.87.82,7.45,7.45,0,0,1,1,.23v1.11c-2.27-.12-4.29-.2-6-.2s-4,.08-6.27.2V50l.8-.17a9.25,9.25,0,0,0,3.05-.85,1.69,1.69,0,0,0,.42-1.19c0-.37.06-3.6.12-9.69l-.09-8.91a14.18,14.18,0,0,0-.11-2.35.58.58,0,0,0-.37-.42,8.9,8.9,0,0,0-2.92-.83,7,7,0,0,1-.9-.19ZM150,37c1.31.14,2.33.23,3,.23a7.43,7.43,0,0,0,5.14-1.53,5.47,5.47,0,0,0,1.64-4.25,4.83,4.83,0,0,0-1.46-3.77A5.88,5.88,0,0,0,154,26.27c-.68,0-2,.08-4,.22Zm36.48-.82H191a21,21,0,0,0,3.17-.14,1.59,1.59,0,0,0,.77-.6,10.33,10.33,0,0,0,.73-2.55,4.09,4.09,0,0,1,.17-.62h1.22c-.11,2.07-.17,3.68-.17,4.82s.06,2.75.17,4.76h-1.2a28,28,0,0,0-.68-3,1.14,1.14,0,0,0-.68-.66,9.94,9.94,0,0,0-2.83-.22h-5.22l.11,11.17h8.66a9.64,9.64,0,0,0,2-.12,3.6,3.6,0,0,0,1.28-.82,19.79,19.79,0,0,0,2-3.26c.11-.17.25-.42.45-.76h1.34c-.15.39-.94,2.75-2.36,7-4.59-.12-8.78-.2-12.58-.2-2.64,0-5.56.08-8.76.2V50.05l3.06-.68a2.07,2.07,0,0,0,.91-.4,2.76,2.76,0,0,0,.28-1.5v-.34l.11-4.45V29.6a13.3,13.3,0,0,0-.19-2.89,1.1,1.1,0,0,0-.34-.37,10.87,10.87,0,0,0-1.73-.48l-2-.45V24.3c2.38.11,5.18.17,8.47.17,1.82,0,6.09-.06,12.84-.17a51.69,51.69,0,0,0,.46,6.46h-1.34a22.52,22.52,0,0,0-1.21-3.4,1.64,1.64,0,0,0-.8-.76,9,9,0,0,0-2.79-.26h-7.71l-.14,6.1Zm26.9-10.74V24.31q4.64.17,6.3.17c.68,0,2.83-.06,6.52-.17v1.11c-2.27.39-3.59.65-4,.79a1.2,1.2,0,0,0-.62.4,4,4,0,0,0-.32,1.64c0,.85-.05,5.5-.05,14q0,2.52.09,6.72h8.31a8.74,8.74,0,0,0,2.44-.22,3,3,0,0,0,1.19-1,34.11,34.11,0,0,0,2.26-3.88h1.62l-1.5,4.22c-.26.77-.6,1.79-1,3.07C229.36,51,224.79,51,221,51c-2.75,0-5.28.08-7.63.2V50.05a30.28,30.28,0,0,0,3.4-.74,1.38,1.38,0,0,0,.68-.53,6.14,6.14,0,0,0,.17-2l.11-11.59-.09-7.46a1.76,1.76,0,0,0-.28-1.22,7.86,7.86,0,0,0-2.78-.79c-.28-.06-.68-.14-1.22-.28Z"/><path class="cls-2" d="M43.46,58.3v-.54c1.17.06,2.43.08,3.8.08,1.59,0,3.2,0,4.88-.08a19.55,19.55,0,0,0,.2,2.64h-.63A.9.9,0,0,0,51.6,60,3.45,3.45,0,0,0,51,58.84a1.49,1.49,0,0,0-.9-.17H47.3c-.06.82-.06,2-.09,3.54h1.28a2.66,2.66,0,0,0,1.22-.2,3.43,3.43,0,0,0,.49-1.3h.6c-.06.7-.06,1.33-.06,1.87s0,1.16.06,1.92h-.6a3.6,3.6,0,0,0-.4-1.33A2.11,2.11,0,0,0,48.67,63H47.3v4.06h2.9a2.35,2.35,0,0,0,.65-.06,1.9,1.9,0,0,0,.45-.34,8.53,8.53,0,0,0,1.05-1.56H53c-.28.79-.56,1.76-.9,2.89-1.65-.06-3.35-.08-5.13-.08-.83,0-2,0-3.43.08v-.54a5.22,5.22,0,0,0,1.36-.34c.17-.11.25-.39.25-.85V59.77a3.06,3.06,0,0,0-.08-1,.57.57,0,0,0-.32-.29,4.07,4.07,0,0,0-1.21-.25Zm13.69,0v-.54c.65.06,1.27.08,1.84.08a18.2,18.2,0,0,0,2-.08c.61.79,2.36,3,5.3,6.58V60.4a6.77,6.77,0,0,0-.11-1.62.37.37,0,0,0-.23-.26,5.76,5.76,0,0,0-1.24-.22v-.54c.8.06,1.47.08,2,.08s1.27,0,2.12-.08v.54h-.34a2.1,2.1,0,0,0-1,.29,1.07,1.07,0,0,0-.2.62V68a5.53,5.53,0,0,0-.65.22l-2.75-3.48-4.19-5.1v3.45l.06,3.35a4,4,0,0,0,.09.48.32.32,0,0,0,.14.14,7,7,0,0,0,1,.26l.31.08V68c-.82-.06-1.5-.08-2-.08s-1.14,0-2.17.08v-.54a1.23,1.23,0,0,0,.33-.08,2.84,2.84,0,0,0,1-.26.54.54,0,0,0,.15-.22c0-.09.06-.8.07-2.16.06-1.93.09-3.57.09-5a4.29,4.29,0,0,0-.06-.88.51.51,0,0,0-.28-.31,5.44,5.44,0,0,0-1-.26H57.1Zm25.4,2.49h-.69a17.82,17.82,0,0,0-.62-1.73.61.61,0,0,0-.31-.28,4.58,4.58,0,0,0-1.28-.09H79v6.75A7.85,7.85,0,0,0,79,67a.51.51,0,0,0,.23.23,10.06,10.06,0,0,0,1.3.28V68c-1.47-.06-2.41-.08-2.83-.08s-1.45,0-2.6.08v-.54a10.17,10.17,0,0,0,1.35-.31.46.46,0,0,0,.23-.28v-8.2H75.52a2.33,2.33,0,0,0-.82.12.77.77,0,0,0-.34.37c-.1.28-.31.82-.54,1.61h-.65c.09-.71.11-1.19.15-1.44s.06-.83.06-1.59c1.92.06,3.76.06,5.6.06,1.53,0,2.65,0,3.32-.06a18.87,18.87,0,0,0,.24,3Zm16.53,1.59V59c0-.23,0-.34-.09-.4a.9.9,0,0,0-.53-.17l-1-.23v-.42c1.09.06,1.9.08,2.4.08s1.3,0,2.24-.08v.44a12.84,12.84,0,0,0-1.33.32.35.35,0,0,0-.2.14,2.09,2.09,0,0,0-.09.79v7.37c0,.23,0,.37.11.43a5.06,5.06,0,0,0,1.51.37v.45C100.76,68,99.94,68,99.57,68c-.59,0-1.3,0-2.15.08v-.45l1.3-.29a.3.3,0,0,0,.2-.14,1,1,0,0,0,.11-.56V63.2H93.8v3.51a1,1,0,0,0,.09.48,1,1,0,0,0,.37.2c.06,0,.45.09,1.19.23v.45C94.26,68,93.45,68,93,68s-1.35,0-2.19.08v-.45c.51-.12.9-.17,1.16-.23a.6.6,0,0,0,.37-.19.92.92,0,0,0,.12-.51V58.92a.42.42,0,0,0-.09-.34.78.78,0,0,0-.34-.17l-1.19-.23v-.42c1,.06,1.79.08,2.44.08s1.42,0,2.24-.08v.44l-1.22.23a1.34,1.34,0,0,0-.31.17.67.67,0,0,0-.08.37l-.06,3.43h5.27Zm7.82.57a5.18,5.18,0,0,1,1.53-3.89,5.34,5.34,0,0,1,3.95-1.53,4.71,4.71,0,0,1,3.53,1.36,5,5,0,0,1,1.33,3.69,5.66,5.66,0,0,1-1.5,4.14,5.16,5.16,0,0,1-3.9,1.5,4.76,4.76,0,0,1-3.6-1.36A5.4,5.4,0,0,1,106.9,63Zm1.59-.2a5.15,5.15,0,0,0,1.05,3.57,3.31,3.31,0,0,0,2.64,1.19,3.21,3.21,0,0,0,1.87-.54,3.28,3.28,0,0,0,1.22-1.64,6.5,6.5,0,0,0,.41-2.35,5.82,5.82,0,0,0-.53-2.73,3.35,3.35,0,0,0-5-1.44,3.23,3.23,0,0,0-1.25,1.64,6.68,6.68,0,0,0-.41,2.3Zm20.18-2.24h-.53a8,8,0,0,0-.43-1.36,1.46,1.46,0,0,0-.74-.65,2.12,2.12,0,0,0-1.07-.26,1.93,1.93,0,0,0-1.36.48,1.5,1.5,0,0,0-.51,1.17,1.6,1.6,0,0,0,.39,1,6.61,6.61,0,0,0,2,1.14,5.36,5.36,0,0,1,2.18,1.42,2.7,2.7,0,0,1,.57,1.67,2.91,2.91,0,0,1-1.71,2.66,4.65,4.65,0,0,1-1.87.4,8.71,8.71,0,0,1-1.36-.11,12.82,12.82,0,0,1-1.64-.46,26.88,26.88,0,0,0,.11-2.69h.6a5.26,5.26,0,0,0,.48,1.5,1.76,1.76,0,0,0,.77.71,2.37,2.37,0,0,0,1.16.28,2.21,2.21,0,0,0,1.47-.48,1.54,1.54,0,0,0,.65-1.33,1.85,1.85,0,0,0-.45-1.25,6.22,6.22,0,0,0-2-1.22,5.89,5.89,0,0,1-2.1-1.27,2.42,2.42,0,0,1-.54-1.48,2.71,2.71,0,0,1,.43-1.41,2.81,2.81,0,0,1,1.28-1.08,3.87,3.87,0,0,1,1.71-.4,8.16,8.16,0,0,1,2.57.51v2.47Zm5.48-2.33v-.42c.62.06,1.4.08,2.38.08h2.86a3.35,3.35,0,0,1,2.32.68,2.38,2.38,0,0,1,.71,1.84,3.07,3.07,0,0,1-1,2.27,3.9,3.9,0,0,1-2.69.9,7.06,7.06,0,0,1-1.59-.19V65a13.8,13.8,0,0,0,.08,2.13.28.28,0,0,0,.12.2,6.8,6.8,0,0,0,1.36.25l.28.06V68c-.91-.06-1.76-.08-2.55-.08a22.48,22.48,0,0,0-2.32.08v-.45a3.15,3.15,0,0,0,.42-.09,4.09,4.09,0,0,0,1.08-.28c.11-.09.17-.37.17-.85V59.2c0-.31,0-.51-.14-.59a3.74,3.74,0,0,0-1.17-.34,2.37,2.37,0,0,0-.36-.09Zm3.06,4.54a6.26,6.26,0,0,0,1.3.17,2.55,2.55,0,0,0,1.82-.62,2.31,2.31,0,0,0,.65-1.65,2.13,2.13,0,0,0-.6-1.59,2.69,2.69,0,0,0-1.81-.56,7.19,7.19,0,0,0-1.31.14c0,1.45,0,2.81,0,4.11Zm14.65-5v.48a2.22,2.22,0,0,0-.37.09,2.6,2.6,0,0,0-1.1.31,1,1,0,0,0-.14.65v.26l-.06,2.92v4.22a.94.94,0,0,0,.14.63,3.06,3.06,0,0,0,1,.25,3.93,3.93,0,0,1,.48.06V68c-.76-.06-1.53-.08-2.24-.08s-1.56,0-2.43.08v-.45a1.55,1.55,0,0,1,.31-.06,3.63,3.63,0,0,0,1.16-.31c.11-.09.14-.34.14-.71V59a.52.52,0,0,0-.17-.37,3,3,0,0,0-1.08-.31,1.24,1.24,0,0,1-.39-.09v-.42c1,.06,1.87.08,2.46.08s1.42,0,2.24-.08Zm5.08,2.81h-.57c.08-.83.17-1.76.25-2.81,2.13.06,3.66.08,4.57.08.74,0,2.12,0,4.11-.08.06,1.08.14,2,.23,2.81H165a12.13,12.13,0,0,0-.46-1.56.65.65,0,0,0-.29-.32,2.26,2.26,0,0,0-1-.11h-1.61c0,1.28-.06,2.86-.06,4.76s0,3,.06,3.58a.67.67,0,0,0,.1.28,4.65,4.65,0,0,0,1.19.31,1.65,1.65,0,0,1,.32.06V68c-1-.06-1.82-.08-2.56-.08a19.68,19.68,0,0,0-2.17.08v-.45l.4-.09a3.18,3.18,0,0,0,1.13-.28.19.19,0,0,0,.09-.14,14.59,14.59,0,0,0,0-1.62V58.54h-2a.76.76,0,0,0-.91.59c-.08.2-.19.66-.36,1.37Zm17.49-3h.45c.66,1.67,1.47,3.57,2.41,5.7L179,66.88a.89.89,0,0,0,.26.29,5.16,5.16,0,0,0,1.05.34V68c-.86-.06-1.51-.08-1.93-.08s-1.14,0-2.16.08v-.45a3.94,3.94,0,0,0,1-.29.29.29,0,0,0,.15-.25,1.8,1.8,0,0,0-.17-.51l-.74-1.76h-4.2l-.76,1.84a1.48,1.48,0,0,0-.17.54.13.13,0,0,0,.08.14,3.22,3.22,0,0,0,.82.23.36.36,0,0,1,.23.06V68c-.82-.06-1.39-.08-1.73-.08a13.51,13.51,0,0,0-1.64.08v-.45a3.38,3.38,0,0,0,.91-.31,3.33,3.33,0,0,0,.36-.46c.29-.48,1-2,2.1-4.59ZM172.53,64h3.63l-1.86-4.25Zm12.06-5.79v-.42c1.19.06,2,.08,2.41.08.26,0,1.08,0,2.5-.08v.42c-.88.15-1.39.26-1.53.29a.48.48,0,0,0-.23.17,1.44,1.44,0,0,0-.14.62v7.91h3.17a3.66,3.66,0,0,0,.94-.08,1.17,1.17,0,0,0,.45-.37c.14-.2.42-.71.85-1.51h.62l-.56,1.62c-.12.31-.23.68-.37,1.19-2-.06-3.74-.08-5.22-.08-1,0-2,0-2.92.08v-.45c.74-.12,1.16-.23,1.31-.26a.6.6,0,0,0,.25-.22,1.85,1.85,0,0,0,.06-.74l0-4.45V59.08c0-.25,0-.39-.12-.45a2.56,2.56,0,0,0-1.05-.31l-.48-.12Z"/><path class="cls-1" d="M20.52,83.58H22a8.34,8.34,0,0,0,1,0,.76.76,0,0,0,.25-.19,3.54,3.54,0,0,0,.23-.83.6.6,0,0,1,.06-.19h.39v3.06h-.39c-.06-.34-.14-.67-.23-1a.38.38,0,0,0-.21-.2,3.06,3.06,0,0,0-.91-.08H20.53v3.57h2.78a3.53,3.53,0,0,0,.65,0,1,1,0,0,0,.4-.28,5.35,5.35,0,0,0,.65-1l.14-.26h.43c-.06.12-.32.88-.77,2.24H18v-.34l1-.22a.65.65,0,0,0,.28-.12.81.81,0,0,0,.09-.48V81.54a3.46,3.46,0,0,0-.06-.91.25.25,0,0,0-.11-.12l-.54-.17L18,80.2v-.37c.74.06,1.65.09,2.69.09.61,0,2,0,4.11-.09A17.55,17.55,0,0,0,25,81.9h-.39c-.12-.36-.25-.72-.4-1.07a.92.92,0,0,0-.26-.26,4.44,4.44,0,0,0-.9-.06H20.54v1.93Zm6-.65v-.34c.49,0,.91.06,1.28.06a12.6,12.6,0,0,0,1.4-.06v.34h-.15a.91.91,0,0,0-.34.14.23.23,0,0,0-.06.12,5.35,5.35,0,0,0,.8,1.44,8.77,8.77,0,0,0,.88-1.13,1.35,1.35,0,0,0,.17-.34c0-.09,0-.12-.06-.14a.44.44,0,0,0-.31-.09h-.08v-.31c.34,0,.65.06,1,.06a7.6,7.6,0,0,0,1.11-.06V83a1.17,1.17,0,0,0-1,.54L29.8,85.14c1.05,1.56,1.65,2.41,1.79,2.58a2.05,2.05,0,0,0,.79.37v.31H29.75v-.31h.11a2.12,2.12,0,0,0,.4-.14c0-.06,0-.08,0-.14a.83.83,0,0,0-.08-.28,14.57,14.57,0,0,0-1.05-1.59,8.08,8.08,0,0,0-1.31,1.87A.14.14,0,0,0,28,88a1,1,0,0,0,.45.14.24.24,0,0,1,.12,0v.31h-2.3v-.31a1.37,1.37,0,0,0,.71-.28c.11-.12.76-.91,1.93-2.38-.12-.2-.46-.71-1-1.51a2.22,2.22,0,0,0-.57-.72,1.94,1.94,0,0,0-.76-.31Zm10.61,1.56-.43-.06a1.55,1.55,0,0,0-.37-1.13,1.41,1.41,0,0,0-1-.37,1.66,1.66,0,0,0-1.5,1,3.71,3.71,0,0,0-.23,1.28A2.57,2.57,0,0,0,34.14,87a1.65,1.65,0,0,0,1.27.65A3.92,3.92,0,0,0,37.23,87l.22.37a8.53,8.53,0,0,1-1.57,1,1.74,1.74,0,0,1-.74.14,2.44,2.44,0,0,1-1.71-.62,3,3,0,0,1-.88-2.21,3.38,3.38,0,0,1,.91-2.38,3,3,0,0,1,2.24-.94,3.35,3.35,0,0,1,1.75.46,4.94,4.94,0,0,1-.1.53c-.08.29-.15.66-.24,1.11Zm5.73,2.44.23.34-1.22.91a2.67,2.67,0,0,1-.51.25,4.52,4.52,0,0,1-.8.11,2.28,2.28,0,0,1-1.7-.79,3.22,3.22,0,0,1-.68-2.15A3.27,3.27,0,0,1,39,83.27a2.7,2.7,0,0,1,2.07-.88,2,2,0,0,1,1.45.51A2.23,2.23,0,0,1,43,84.49a4,4,0,0,0-.45.37H39.23a3.5,3.5,0,0,0,.46,2,1.42,1.42,0,0,0,1.27.71,3,3,0,0,0,.82-.15,6.51,6.51,0,0,0,1.08-.56ZM42,84.26a1.6,1.6,0,0,0-.28-.9,1,1,0,0,0-.91-.46,1.37,1.37,0,0,0-.91.34,2.36,2.36,0,0,0-.56,1.14h.33A22.73,22.73,0,0,0,42,84.26Zm1.59-3.65v-.34a11.13,11.13,0,0,0,2-.8l.17.12a35.44,35.44,0,0,0-.14,4.25V87.3a.77.77,0,0,0,.1.42,2.71,2.71,0,0,0,.91.34v.31h-3v-.31a3.74,3.74,0,0,0,.88-.34.46.46,0,0,0,.08-.34V81.09a.9.9,0,0,0-.08-.46.41.41,0,0,0-.29-.08,3.34,3.34,0,0,0-.62.06Zm3.36,0v-.34a12.84,12.84,0,0,0,2-.8l.15.12a42,42,0,0,0-.15,4.25V87.3c0,.23,0,.36.15.42a2.41,2.41,0,0,0,.88.34v.31H47v-.31a4.35,4.35,0,0,0,.91-.34,1,1,0,0,0,.07-.34V81.09a.89.89,0,0,0-.07-.46.43.43,0,0,0-.28-.08,3.21,3.21,0,0,0-.63.06Zm8.31,6.32.22.34-1.16.93a2,2,0,0,1-.53.25,3.5,3.5,0,0,1-.79.11,2.19,2.19,0,0,1-1.68-.79,3.1,3.1,0,0,1-.7-2.15,3.14,3.14,0,0,1,.85-2.33,2.61,2.61,0,0,1,2-.88,2,2,0,0,1,1.45.51,2.35,2.35,0,0,1,.54,1.59,1.83,1.83,0,0,0-.46.37H51.64a3.42,3.42,0,0,0,.45,2,1.43,1.43,0,0,0,1.25.71,3,3,0,0,0,.82-.15,6.51,6.51,0,0,0,1.08-.56Zm-.88-2.67a1.68,1.68,0,0,0-.26-.9,1,1,0,0,0-.93-.46,1.31,1.31,0,0,0-.88.34,2.56,2.56,0,0,0-.6,1.14H52a22.58,22.58,0,0,0,2.33-.12ZM56,83.55V83.2a7.79,7.79,0,0,0,2-.76l.14.11a5.54,5.54,0,0,0-.07,1l.76-.76a1.07,1.07,0,0,1,.45-.26,2,2,0,0,1,.74-.14A1.59,1.59,0,0,1,61.3,83a2.36,2.36,0,0,1,.31,1.33v3.2a.64.64,0,0,0,.1.26,3.25,3.25,0,0,0,.61.17l.25.08v.31H59.65V88a8.29,8.29,0,0,0,.79-.28.68.68,0,0,0,.12-.26c0-.39,0-1,0-1.81,0-.54,0-1.08,0-1.62a1,1,0,0,0-.37-.59.89.89,0,0,0-.65-.23,1.69,1.69,0,0,0-.8.23,1.4,1.4,0,0,0-.56.62,2.71,2.71,0,0,0-.2,1.16,12.66,12.66,0,0,0,.11,2.38c.06.12.29.23.71.34L59,88v.31h-3V88a3.52,3.52,0,0,0,.82-.25c.06,0,.09-.12.09-.26,0-.53.08-1.06.08-1.59a17.86,17.86,0,0,0,0-2.24.3.3,0,0,0-.34-.25,3,3,0,0,0-.43.06.88.88,0,0,0-.23,0Zm8.45-2.43h.34l-.14,1.53H66.3v.08l-.26.51H64.57l-.06,3.12h0a2.5,2.5,0,0,0,.17,1,.58.58,0,0,0,.58.31,2.05,2.05,0,0,0,.82-.25l.2.34a6.92,6.92,0,0,1-1,.54,2,2,0,0,1-.59.14,1.06,1.06,0,0,1-.69-.23.9.9,0,0,1-.36-.57,6.76,6.76,0,0,1-.06-1.27c0-.74,0-1.82.06-3.21h-.88V82.9a3.7,3.7,0,0,0,.9-.62,7.64,7.64,0,0,0,.74-1.19Zm10.06,3.37-.39-.06a1.56,1.56,0,0,0-.4-1.13,1.3,1.3,0,0,0-1-.37,1.64,1.64,0,0,0-.88.26,1.75,1.75,0,0,0-.63.79,3.28,3.28,0,0,0-.25,1.28A2.58,2.58,0,0,0,71.5,87a1.59,1.59,0,0,0,1.24.65A4,4,0,0,0,74.59,87l.19.37a8.06,8.06,0,0,1-1.55,1,1.84,1.84,0,0,1-.74.14,2.51,2.51,0,0,1-1.73-.62,2.94,2.94,0,0,1-.85-2.21,3.18,3.18,0,0,1,.91-2.38,2.91,2.91,0,0,1,2.24-.94,3.24,3.24,0,0,1,1.72.46,3.33,3.33,0,0,1-.11.53c-.06.29-.14.66-.23,1.11Zm1.85-.23h-.4A8.62,8.62,0,0,0,76.11,83a5,5,0,0,1,2.13-.54,2.06,2.06,0,0,1,.73.11,1.54,1.54,0,0,1,.54.34,1.66,1.66,0,0,1,.29.48,4.24,4.24,0,0,1,.11.94l-.06,2.49a1,1,0,0,0,.12.66.32.32,0,0,0,.28.17,1.75,1.75,0,0,0,.71-.32l.17.26c-.57.48-.88.77-.94.79a1.06,1.06,0,0,1-.42.12.82.82,0,0,1-.6-.23.9.9,0,0,1-.28-.65,6.29,6.29,0,0,1-1.08.71,2,2,0,0,1-.76.17A1.42,1.42,0,0,1,75.54,87a1.71,1.71,0,0,1,.15-.71,1.36,1.36,0,0,1,.42-.53,3,3,0,0,1,.71-.43c.79-.37,1.47-.68,2.07-.94a2,2,0,0,0-.29-1.13,1.15,1.15,0,0,0-.79-.25,1.18,1.18,0,0,0-.85.28,3.05,3.05,0,0,0-.62,1Zm2.55.68a11,11,0,0,0-1.93,1,1.1,1.1,0,0,0-.34.8,1,1,0,0,0,.27.73.8.8,0,0,0,.58.26,1.69,1.69,0,0,0,.74-.23,1.21,1.21,0,0,0,.54-.51,2.82,2.82,0,0,0,.15-1Zm2.49-1.39V83.2a6.41,6.41,0,0,0,1.9-.76l.17.11c0,.4-.08.82-.11,1.31a7.07,7.07,0,0,1,1-1.11,1.11,1.11,0,0,1,.68-.2,1.45,1.45,0,0,1,.59.12,10.87,10.87,0,0,0-.22,1.27h-.31a.72.72,0,0,0-.2-.42.35.35,0,0,0-.29-.12.78.78,0,0,0-.51.23,1.87,1.87,0,0,0-.56.74,3.08,3.08,0,0,0-.2,1.24,16.71,16.71,0,0,0,.08,1.87.34.34,0,0,0,.17.29,2.66,2.66,0,0,0,.85.28v.31H81.35v-.31a2.79,2.79,0,0,0,.94-.34.94.94,0,0,0,.11-.59V85.81a13.4,13.4,0,0,0-.05-2.1c0-.17-.15-.25-.35-.25l-.51.06h-.14Zm9.3,3.38.23.34-1.19.91a1.91,1.91,0,0,1-.54.25,3.51,3.51,0,0,1-.8.11,2.25,2.25,0,0,1-1.67-.79A3.16,3.16,0,0,1,86,85.6a3.22,3.22,0,0,1,.85-2.33,2.73,2.73,0,0,1,2-.88,2,2,0,0,1,1.45.51,2.16,2.16,0,0,1,.54,1.59,3.16,3.16,0,0,0-.45.37H87a3.77,3.77,0,0,0,.45,2,1.47,1.47,0,0,0,1.25.71,2.83,2.83,0,0,0,.82-.15,5,5,0,0,0,1.08-.56Zm-.88-2.67a1.67,1.67,0,0,0-.25-.9,1.05,1.05,0,0,0-.94-.46,1.33,1.33,0,0,0-.88.34,2.55,2.55,0,0,0-.59,1.14h.37A21.81,21.81,0,0,0,89.79,84.26Zm4.91,4.11v-.31a1.71,1.71,0,0,0,.82-.31,14.21,14.21,0,0,0,.08-2.35V83.24a3.91,3.91,0,0,0-.84.06V83c.28-.15.57-.26.84-.43a9.36,9.36,0,0,1,.06-1.3,1.8,1.8,0,0,1,.45-.85,2.81,2.81,0,0,1,.94-.74,1.92,1.92,0,0,1,.91-.23,2.71,2.71,0,0,1,.68.09,4.59,4.59,0,0,1,.79.34A9.85,9.85,0,0,0,99,81.2h-.35a1.27,1.27,0,0,0-.37-.86.85.85,0,0,0-.68-.25.82.82,0,0,0-.62.25,1.31,1.31,0,0,0-.34.71,7.15,7.15,0,0,0-.06,1.31v.37h1.54l.09.08a2.43,2.43,0,0,0-.31.54,9.36,9.36,0,0,1-1.31-.06V87.2a1.13,1.13,0,0,0,.09.6,3,3,0,0,0,.79.25l.2.06v.31h-3Zm3.91-2.8a3.16,3.16,0,0,1,.82-2.33,2.88,2.88,0,0,1,2.18-.85,2.61,2.61,0,0,1,2,.77,2.79,2.79,0,0,1,.74,2.15,3.1,3.1,0,0,1-.82,2.35,3,3,0,0,1-2.18.88,2.62,2.62,0,0,1-2-.79,3,3,0,0,1-.73-2.18ZM99.77,85a7.28,7.28,0,0,0,.11,1.47,2.2,2.2,0,0,0,.66,1.14,1.48,1.48,0,0,0,1,.39,1.58,1.58,0,0,0,1.22-.56,2.88,2.88,0,0,0,.48-1.82,3.45,3.45,0,0,0-.54-2.1,1.63,1.63,0,0,0-1.28-.65,1.55,1.55,0,0,0-1.19.51A2.51,2.51,0,0,0,99.78,85ZM105,83.55V83.2a6.7,6.7,0,0,0,1.93-.76l.17.11a6.38,6.38,0,0,0-.11,1.31,7.07,7.07,0,0,1,1-1.11,1,1,0,0,1,.68-.2,1.31,1.31,0,0,1,.56.12c-.08.42-.17.85-.22,1.27h-.31a.71.71,0,0,0-.17-.42.35.35,0,0,0-.29-.12.69.69,0,0,0-.51.23,1.65,1.65,0,0,0-.59.74,3.72,3.72,0,0,0-.17,1.24v1.87a.66.66,0,0,0,.17.29,3.11,3.11,0,0,0,.88.28v.31H105v-.31a2.22,2.22,0,0,0,.94-.34c.08-.06.11-.25.11-.59V85.81a18.41,18.41,0,0,0-.06-2.1c0-.17-.14-.25-.34-.25a1.57,1.57,0,0,0-.51.06h-.17Zm7.43-.62v-.34c.65,0,1.08.06,1.36.06s.68,0,1.36-.06v.34a2.15,2.15,0,0,0-.65.17.26.26,0,0,0-.09.17,4.69,4.69,0,0,0,.2.6c.46,1.1.88,2.07,1.28,2.89l.65-1.79a12,12,0,0,0,.54-1.67.18.18,0,0,0-.06-.17.56.56,0,0,0-.31-.14.24.24,0,0,0-.17-.06v-.34c.51,0,.88.06,1.1.06a5.62,5.62,0,0,0,.94-.06v.34a1.35,1.35,0,0,0-.65.28,10.65,10.65,0,0,0-.63,1.37l-1.16,3.17a15.16,15.16,0,0,1-.76,1.93,2.85,2.85,0,0,1-.8.93,1.29,1.29,0,0,1-.85.31,5.54,5.54,0,0,1-.56,0c-.06-.26-.12-.46-.15-.57s-.14-.25-.25-.48l.23-.17a1.41,1.41,0,0,0,.9.4,1,1,0,0,0,.74-.29,4,4,0,0,0,.77-1.56l-1.2-2.72a16.22,16.22,0,0,0-1-2,.7.7,0,0,0-.23-.31,1.13,1.13,0,0,0-.59-.23Zm6.46,2.64a3.35,3.35,0,0,1,.82-2.33,3,3,0,0,1,2.19-.85,2.61,2.61,0,0,1,2,.77,2.85,2.85,0,0,1,.76,2.15,3.11,3.11,0,0,1-.85,2.35,2.92,2.92,0,0,1-2.18.88,2.59,2.59,0,0,1-2-.79,3.05,3.05,0,0,1-.74-2.18Zm1.16-.54a6,6,0,0,0,.12,1.47,2.18,2.18,0,0,0,.65,1.14,1.5,1.5,0,0,0,1,.39,1.52,1.52,0,0,0,1.22-.56,2.88,2.88,0,0,0,.48-1.82,3.32,3.32,0,0,0-.54-2.1,1.63,1.63,0,0,0-1.27-.65,1.55,1.55,0,0,0-1.19.51A2.52,2.52,0,0,0,120.1,85Zm5.13-1.87v-.34a11.06,11.06,0,0,0,2-.26l.17.12a21.23,21.23,0,0,0-.09,2.52,9,9,0,0,0,.09,1.64.86.86,0,0,0,.34.57,1.13,1.13,0,0,0,.65.22,1.55,1.55,0,0,0,.83-.25,1.15,1.15,0,0,0,.53-.6,2.91,2.91,0,0,0,.17-1.13c0-.06,0-.74,0-2a.42.42,0,0,0-.14-.34,1.5,1.5,0,0,0-.69-.11h-.22v-.34a12.31,12.31,0,0,0,2-.26l.17.12c0,.34-.06.76-.08,1.24s0,1.11,0,1.76a8.94,8.94,0,0,0,0,1.5.34.34,0,0,0,.34.26,3.74,3.74,0,0,0,.66-.09v.34a9.19,9.19,0,0,0-1,.34,4.85,4.85,0,0,0-.91.46l-.17-.14a9,9,0,0,1,.09-.91,6.32,6.32,0,0,1-1.08.85,2.05,2.05,0,0,1-.8.2,1.51,1.51,0,0,1-1.67-1.68V84.73a3.41,3.41,0,0,0-.14-1.31c-.08-.11-.31-.17-.74-.19a.67.67,0,0,0-.2,0Zm7,.39V83.2a6.59,6.59,0,0,0,1.93-.76l.17.11a9.52,9.52,0,0,0-.12,1.31,7.07,7.07,0,0,1,1-1.11,1.13,1.13,0,0,1,.68-.2,1.35,1.35,0,0,1,.57.12c-.08.42-.14.85-.2,1.27h-.31a.75.75,0,0,0-.2-.42.32.32,0,0,0-.28-.12.78.78,0,0,0-.51.23,2.07,2.07,0,0,0-.6.74,4,4,0,0,0-.17,1.24,14.64,14.64,0,0,0,.09,1.87.34.34,0,0,0,.17.29,2.66,2.66,0,0,0,.85.28v.31H132.2v-.31a2.64,2.64,0,0,0,1-.34.94.94,0,0,0,.12-.59V85.81a12.29,12.29,0,0,0-.06-2.1c0-.17-.14-.25-.34-.25a1.63,1.63,0,0,0-.51.06h-.17Zm7.42,0V83.2a7.76,7.76,0,0,0,1.93-.79l.2.14c-.06.34-.08.74-.11,1.13a7.53,7.53,0,0,1,1.16-1.1,1.49,1.49,0,0,1,.74-.17,2,2,0,0,1,1.58.68,2.64,2.64,0,0,1,.63,1.9,3.4,3.4,0,0,1-.43,1.76A3.07,3.07,0,0,1,144.18,88a2.5,2.5,0,0,1-1.45.49,1.49,1.49,0,0,1-.51-.06,2.88,2.88,0,0,1-.56-.2v1.9c0,.2,0,.2.12.23a2.16,2.16,0,0,0,.68.22l.25.06v.34c-.62,0-1.1-.06-1.47-.06s-.82,0-1.67.06V90.6l.31-.06a2.18,2.18,0,0,0,.62-.22.92.92,0,0,0,.12-.51v-5.5a1.56,1.56,0,0,0-.09-.74c0-.08-.11-.11-.23-.11l-.71.05Zm2,3.75a2.56,2.56,0,0,0,.68.42,1.8,1.8,0,0,0,.71.17,1.55,1.55,0,0,0,1.19-.59,2.54,2.54,0,0,0,.51-1.7,2.7,2.7,0,0,0-.51-1.76,1.26,1.26,0,0,0-1-.48,1.63,1.63,0,0,0-.8.22,1.61,1.61,0,0,0-.56.65,2,2,0,0,0-.2,1Z"/><path class="cls-1" d="M146.35,83.55V83.2a7,7,0,0,0,1.93-.76l.14.11c0,.4-.08.82-.1,1.31a10.44,10.44,0,0,1,1-1.11,1.06,1.06,0,0,1,.67-.2,1.53,1.53,0,0,1,.6.12c-.08.42-.17.85-.22,1.27h-.31a.87.87,0,0,0-.17-.42.42.42,0,0,0-.29-.12.66.66,0,0,0-.51.23,1.53,1.53,0,0,0-.59.74,3.11,3.11,0,0,0-.2,1.24,13,13,0,0,0,.08,1.87.51.51,0,0,0,.17.29,2.5,2.5,0,0,0,.85.28v.31h-3.06v-.31a2.32,2.32,0,0,0,.94-.34c.08-.06.11-.25.11-.59V83.71a.32.32,0,0,0-.35-.25,2.08,2.08,0,0,0-.53.06h-.15Zm6-4.08a.69.69,0,0,1,.45.2.58.58,0,0,1,.17.45.62.62,0,0,1-.17.46.66.66,0,0,1-.45.17.59.59,0,0,1-.62-.63.66.66,0,0,1,.17-.45A.69.69,0,0,1,152.35,79.47Zm-1.53,4V83.2a7.71,7.71,0,0,0,1.93-.77l.17.12c-.09.85-.14,2.07-.14,3.65a12.37,12.37,0,0,0,.05,1.36.59.59,0,0,0,.14.23,2.13,2.13,0,0,0,.63.25.66.66,0,0,1,.2.06v.31h-3V88.1c.57-.14.88-.25.94-.37a6.07,6.07,0,0,0,.11-1.75V84.4a2.06,2.06,0,0,0-.11-.82.32.32,0,0,0-.29-.14l-.65.06Zm8.11,1-.4-.06a1.56,1.56,0,0,0-.4-1.13,1.27,1.27,0,0,0-1-.37,1.66,1.66,0,0,0-1.5,1,3.27,3.27,0,0,0-.23,1.28,2.57,2.57,0,0,0,.54,1.75,1.65,1.65,0,0,0,1.27.65A4,4,0,0,0,159,87l.23.37a10.39,10.39,0,0,1-1.59,1,1.84,1.84,0,0,1-.74.14,2.56,2.56,0,0,1-1.73-.62,3,3,0,0,1-.85-2.21,3.38,3.38,0,0,1,.91-2.38,3,3,0,0,1,2.24-.94,3.58,3.58,0,0,1,1.76.46,2.77,2.77,0,0,1-.15.53c-.06.22-.14.66-.22,1.11Zm5.72,2.44.23.34-1.19.91a2.2,2.2,0,0,1-.51.25,4.07,4.07,0,0,1-.79.11,2.27,2.27,0,0,1-1.71-.79,3.15,3.15,0,0,1-.7-2.15,3.22,3.22,0,0,1,.85-2.33,2.73,2.73,0,0,1,2-.88,2,2,0,0,1,1.47.51,2.14,2.14,0,0,1,.51,1.59,3.16,3.16,0,0,0-.45.37H161a3.67,3.67,0,0,0,.46,2,1.44,1.44,0,0,0,1.24.71,2.84,2.84,0,0,0,.83-.15,4.74,4.74,0,0,0,1.07-.56Zm-.88-2.67a1.45,1.45,0,0,0-.25-.9,1.05,1.05,0,0,0-.94-.46,1.29,1.29,0,0,0-.87.34,2.14,2.14,0,0,0-.57,1.14h.34A21.81,21.81,0,0,0,163.77,84.24Zm1.62-3.65v-.34a12.84,12.84,0,0,0,2-.8l.17.12a35.45,35.45,0,0,0-.17,4.25v3.46c0,.23.06.36.15.42a2.59,2.59,0,0,0,.87.34v.31h-3V88a3.55,3.55,0,0,0,.91-.34,1.4,1.4,0,0,0,.08-.34V81.07a.9.9,0,0,0-.08-.46.41.41,0,0,0-.29-.08,3.34,3.34,0,0,0-.62.06Zm8.31,6.32.22.34-1.19.91a1.91,1.91,0,0,1-.54.25,3.42,3.42,0,0,1-.79.11,2.19,2.19,0,0,1-1.67-.79,3.16,3.16,0,0,1-.71-2.15,3.22,3.22,0,0,1,.85-2.33,2.73,2.73,0,0,1,2-.88,2,2,0,0,1,1.45.51,2.11,2.11,0,0,1,.53,1.59,3.16,3.16,0,0,0-.45.37h-3.34a3.57,3.57,0,0,0,.45,2,1.46,1.46,0,0,0,1.25.71,2.83,2.83,0,0,0,.82-.15,5.81,5.81,0,0,0,1.08-.56Zm-.88-2.67a1.68,1.68,0,0,0-.26-.9,1,1,0,0,0-.93-.46,1.33,1.33,0,0,0-.88.34,2.38,2.38,0,0,0-.6,1.14h.34a22.58,22.58,0,0,0,2.33-.12Zm5.44-.17h-.45a1.19,1.19,0,0,0-.37-.85,1.29,1.29,0,0,0-.85-.31,1,1,0,0,0-.68.23.77.77,0,0,0-.26.54.74.74,0,0,0,.2.51A6,6,0,0,0,177,85a4,4,0,0,1,1.25.85,1.46,1.46,0,0,1,.31.94A1.66,1.66,0,0,1,178,88a2.28,2.28,0,0,1-1.61.54,4.72,4.72,0,0,1-1.65-.34,13.6,13.6,0,0,0,.09-1.56h.47a2,2,0,0,0,.54,1,1.44,1.44,0,0,0,.91.32,1.27,1.27,0,0,0,.74-.23.81.81,0,0,0,.25-.62,1,1,0,0,0-.25-.66,4.31,4.31,0,0,0-1.16-.76,3.66,3.66,0,0,1-1.2-.82,1.16,1.16,0,0,1-.31-.83,1.55,1.55,0,0,1,.6-1.16,2.28,2.28,0,0,1,1.56-.51,4.29,4.29,0,0,1,1.47.31c0,.34-.08.8-.14,1.39Zm4.76,0h-.42a1.2,1.2,0,0,0-1.22-1.16,1.1,1.1,0,0,0-.71.23.77.77,0,0,0-.26.54,1,1,0,0,0,.2.51,5.31,5.31,0,0,0,1.22.76,4.85,4.85,0,0,1,1.25.85,1.58,1.58,0,0,1,.31.94,1.66,1.66,0,0,1-.6,1.27,2.35,2.35,0,0,1-1.61.54,4.83,4.83,0,0,1-1.67-.34,10.23,10.23,0,0,0,.11-1.56h.43a1.75,1.75,0,0,0,.53,1,1.31,1.31,0,0,0,.88.32,1.14,1.14,0,0,0,.74-.23.81.81,0,0,0,.25-.62,1,1,0,0,0-.25-.66A4.31,4.31,0,0,0,181,85.7a3.62,3.62,0,0,1-1.19-.82,1.27,1.27,0,0,1-.31-.83,1.52,1.52,0,0,1,.6-1.16,2.32,2.32,0,0,1,1.59-.51,4.39,4.39,0,0,1,1.47.31c0,.34-.11.8-.17,1.39Zm7.94,0h-.45a1.19,1.19,0,0,0-.37-.85,1.26,1.26,0,0,0-.83-.31,1,1,0,0,0-.7.23.77.77,0,0,0-.26.54.74.74,0,0,0,.2.51,6,6,0,0,0,1.19.76,4,4,0,0,1,1.25.85,1.47,1.47,0,0,1,.34.94,1.66,1.66,0,0,1-.6,1.27,2.36,2.36,0,0,1-1.64.54,4.72,4.72,0,0,1-1.65-.34,13.65,13.65,0,0,0,.12-1.56H188a2.27,2.27,0,0,0,.54,1,1.44,1.44,0,0,0,.91.32,1.27,1.27,0,0,0,.74-.23.81.81,0,0,0,.25-.62,1,1,0,0,0-.25-.66A4.36,4.36,0,0,0,189,85.7a3.73,3.73,0,0,1-1.19-.82,1.39,1.39,0,0,1-.31-.83,1.55,1.55,0,0,1,.6-1.16,2.28,2.28,0,0,1,1.56-.51,4.46,4.46,0,0,1,1.5.31c-.06.34-.11.8-.17,1.39Zm5.89,2.84.23.34-1.22.91a2.2,2.2,0,0,1-.51.25,3.42,3.42,0,0,1-.79.11,2.32,2.32,0,0,1-1.7-.79,3.22,3.22,0,0,1-.68-2.15,3.3,3.3,0,0,1,.82-2.33,2.73,2.73,0,0,1,2.07-.88,2,2,0,0,1,1.44.51,2.14,2.14,0,0,1,.51,1.59c-.15.11-.3.24-.45.37h-3.34a3.77,3.77,0,0,0,.45,2,1.47,1.47,0,0,0,1.29.71,3,3,0,0,0,.82-.15,6.42,6.42,0,0,0,1.07-.56ZM196,84.24a1.53,1.53,0,0,0-.29-.9,1,1,0,0,0-.9-.46,1.41,1.41,0,0,0-.91.34,2.42,2.42,0,0,0-.57,1.14h.34a22.58,22.58,0,0,0,2.33-.12Zm1.58-.71V83.2a7,7,0,0,0,2-.76l.17.11c-.06.34-.09.68-.12,1l.8-.76a.94.94,0,0,1,.45-.26,2.11,2.11,0,0,1,.74-.14,1.54,1.54,0,0,1,1.3.57,2.14,2.14,0,0,1,.29,1.33v3.2a.68.68,0,0,0,.12.26,2.78,2.78,0,0,0,.56.17l.29.08v.31h-2.95V88a4.91,4.91,0,0,0,.79-.28.26.26,0,0,0,.12-.26,13.71,13.71,0,0,0,.08-1.81,10.89,10.89,0,0,0,0-1.62,1,1,0,0,0-.37-.59.86.86,0,0,0-.65-.23,1.64,1.64,0,0,0-.8.23,1.62,1.62,0,0,0-.57.62,2.7,2.7,0,0,0-.19,1.16,15.78,15.78,0,0,0,.08,2.38c.06.12.31.23.71.34a.86.86,0,0,1,.23.06v.31h-3V88a3.25,3.25,0,0,0,.82-.25.62.62,0,0,0,.09-.26,12.1,12.1,0,0,0,.08-1.59,20.87,20.87,0,0,0-.06-2.24c0-.17-.17-.25-.36-.25l-.4.06a1.13,1.13,0,0,0-.26,0Zm10.69.54h-.45a1.19,1.19,0,0,0-.37-.85,1.29,1.29,0,0,0-.85-.31,1,1,0,0,0-.68.23.77.77,0,0,0-.26.54.74.74,0,0,0,.2.51A6,6,0,0,0,207,85a4,4,0,0,1,1.25.85,1.35,1.35,0,0,1,.31.94A1.66,1.66,0,0,1,208,88a2.28,2.28,0,0,1-1.6.54,4.68,4.68,0,0,1-1.65-.34c0-.56.09-1.1.09-1.56h.47a1.86,1.86,0,0,0,.54,1,1.4,1.4,0,0,0,.9.32,1.11,1.11,0,0,0,.72-.23.8.8,0,0,0,.28-.62,1.06,1.06,0,0,0-.25-.66,5.79,5.79,0,0,0-1.16-.76,3.18,3.18,0,0,1-1.19-.82,1.08,1.08,0,0,1-.32-.83,1.49,1.49,0,0,1,.6-1.16,2.26,2.26,0,0,1,1.56-.51,4.39,4.39,0,0,1,1.47.31c0,.34-.11.8-.15,1.39Zm5.9,2.84.22.34-1.22.91a2.2,2.2,0,0,1-.51.25,3.42,3.42,0,0,1-.79.11,2.32,2.32,0,0,1-1.7-.79,3.33,3.33,0,0,1-.68-2.15,3.2,3.2,0,0,1,.82-2.33,2.73,2.73,0,0,1,2.07-.88,2,2,0,0,1,1.46.51,2.23,2.23,0,0,1,.51,1.59,2.84,2.84,0,0,0-.47.37h-3.33a3.59,3.59,0,0,0,.45,2,1.44,1.44,0,0,0,1.28.71,3,3,0,0,0,.82-.15,7.91,7.91,0,0,0,1.08-.56Zm-.88-2.67a1.53,1.53,0,0,0-.29-.9,1,1,0,0,0-.9-.46,1.41,1.41,0,0,0-.91.34,2.29,2.29,0,0,0-.57,1.14H211a22.87,22.87,0,0,0,2.33-.12Zm5.41-.17h-.42a1.25,1.25,0,0,0-.37-.85,1.29,1.29,0,0,0-.85-.31,1,1,0,0,0-.68.23.8.8,0,0,0-.28.54.82.82,0,0,0,.22.51,4.54,4.54,0,0,0,1.19.76,4.32,4.32,0,0,1,1.25.85,1.58,1.58,0,0,1,.31.94,1.68,1.68,0,0,1-.59,1.27,2.38,2.38,0,0,1-1.61.54,4.63,4.63,0,0,1-1.65-.34q.08-.78.09-1.56h.43a1.64,1.64,0,0,0,.53,1,1.32,1.32,0,0,0,.88.32,1.18,1.18,0,0,0,.74-.23.89.89,0,0,0,.25-.62,1.06,1.06,0,0,0-.25-.66,4.65,4.65,0,0,0-1.16-.76,3.43,3.43,0,0,1-1.19-.82,1.22,1.22,0,0,1-.32-.83,1.49,1.49,0,0,1,.6-1.16,2.34,2.34,0,0,1,1.59-.51,4.39,4.39,0,0,1,1.47.31c-.06.34-.11.8-.17,1.39Z"/><line class="cls-3" x1="10.84" y1="74.88" x2="226.29" y2="74.88"/></svg>